<?xml version="1.0" standalone="no"?><!DOCTYPE svg PUBLIC "-//W3C//DTD SVG 1.1//EN" "http://www.w3.org/Graphics/SVG/1.1/DTD/svg11.dtd"><svg t="1782227280660" class="icon" viewBox="0 0 1024 1024" version="1.1" xmlns="http://www.w3.org/2000/svg" p-id="5000" xmlns:xlink="http://www.w3.org/1999/xlink" width="200" height="200"><path d="M194.522 97.876H837.64v225.628l-104.373 132S657.6 351.13 516.081 351.13 292.755 455.503 292.755 455.503l-98.233-135.069V97.876z" fill="#ffffff" p-id="5001"></path><path d="M860.953 64.528H163.047v270.727l89.047 117.473c-37.857 52.58-60.246 117.002-60.246 186.592 0 176.53 143.621 320.15 320.151 320.15s320.15-143.62 320.15-320.15c0-69.59-22.388-134.013-60.244-186.592l89.047-117.473V64.528zM512 900.974c-144.278 0-261.653-117.376-261.653-261.653S367.723 377.668 512 377.668 773.653 495.044 773.653 639.32 656.278 900.974 512 900.974z m290.454-585.38l-69.802 92.091C675.173 352.908 597.477 319.17 512 319.17s-163.174 33.74-220.653 88.516l-69.802-92.091V123.026h149.085v150.885c0 16.153 13.096 29.25 29.25 29.25s29.249-13.097 29.249-29.25V123.026H594.87v150.885c0 16.153 13.097 29.25 29.25 29.25 16.152 0 29.249-13.097 29.249-29.25V123.026h149.085v192.568z" fill="#ffffff" p-id="5002"></path><path d="M409.506 836.469c-8.388 0-16.42-2.623-23.222-7.588-12.163-8.806-18.176-23.588-15.61-38.513l16.067-93.702-68.1-66.376c-10.65-10.393-14.557-26.24-9.969-40.384 4.675-14.386 16.866-24.668 31.824-26.835l94.087-13.667 42.092-85.271c6.584-13.339 20.452-21.956 35.324-21.956 14.857 0 28.72 8.602 35.313 21.922l42.093 85.304 94.106 13.672c14.944 2.161 27.14 12.44 31.815 26.826 4.584 14.186 0.662 30.025-9.983 40.393l-68.09 66.372 16.073 93.72c2.565 14.915-3.456 29.706-15.724 38.575-6.746 4.89-14.744 7.483-23.104 7.483a39.454 39.454 0 0 1-18.49-4.608L512 787.658l-84.162 44.26c-5.416 2.927-11.853 4.55-18.331 4.55z m-22.328-221.066l62.41 60.84-14.724 85.885L512 721.563l77.13 40.56-14.724-85.88 62.41-60.84-86.256-12.53L512 524.73l-38.57 78.145-86.25 12.529z" fill="#ffffff" p-id="5003"></path></svg>