<?xml version="1.0" standalone="no"?><!DOCTYPE svg PUBLIC "-//W3C//DTD SVG 1.1//EN" "http://www.w3.org/Graphics/SVG/1.1/DTD/svg11.dtd"><svg t="1782227580824" class="icon" viewBox="0 0 1820 1024" version="1.1" xmlns="http://www.w3.org/2000/svg" p-id="7047" xmlns:xlink="http://www.w3.org/1999/xlink" width="355.46875" height="200"><path d="M838.921481 322.844444L671.383704 750.174815c-2.939259 7.585185 4.361481 15.17037 12.041481 12.325926l114.820741-41.718519c4.456296-1.611852 9.481481 0.379259 11.662222 4.645926l55.182222 108.373333c3.697778 7.300741 14.317037 6.731852 17.256297-0.853333l167.442963-427.235555c1.896296-4.835556-0.474074-10.334815-5.404445-12.325926l-193.327407-75.946667c-4.740741-1.896296-10.24 0.568889-12.136297 5.404444z m3.413334-8.817777" fill="#7C51D3" p-id="7048"></path><path d="M980.48 322.844444l167.537778 427.330371c2.939259 7.585185-4.361481 15.17037-12.041482 12.325926l-114.82074-41.718519c-4.456296-1.611852-9.481481 0.379259-11.662223 4.645926l-55.182222 108.373333c-3.697778 7.300741-14.317037 6.731852-17.256296-0.853333L769.422222 405.712593c-1.896296-4.835556 0.474074-10.334815 5.404445-12.325926l193.327407-75.946667c4.835556-1.896296 10.334815 0.568889 12.325926 5.404444z m-3.508148-8.817777" fill="#A179F1" p-id="7049"></path><path d="M910.980741 660.954074c-239.502222-78.980741-222.625185-379.259259-222.625185-379.259259C785.351111 184.604444 909.653333 171.614815 909.653333 171.614815s124.302222 12.98963 221.392593 108.752592c0 0 16.782222 301.605926-222.625185 379.25926l2.56 1.327407z m0 0" fill="#FFD34D" p-id="7050"></path><path d="M909.653333 625.967407l-3.887407-1.327407C737.46963 558.648889 720.687407 359.348148 720.687407 299.804444v-5.214814l3.887408-3.887408C798.340741 224.711111 883.768889 207.834074 908.325926 203.946667h2.56c24.557037 3.887407 111.312593 21.997037 183.845926 87.988148l3.887407 3.887407v5.214815c0 25.884444-3.887407 78.980741-20.669629 134.637037-29.771852 95.762963-84.100741 159.194074-164.408889 191.620741l-3.887408-1.327408zM741.357037 303.691852c1.327407 60.871111 19.437037 238.174815 168.296296 299.045926 71.205926-29.771852 121.647407-87.988148 147.531852-176.071111 15.54963-50.441481 19.437037-97.09037 19.437037-122.974815-67.318519-58.216296-148.859259-75.093333-168.296296-78.980741-18.10963 3.887407-98.322963 20.66963-166.968889 78.980741z m0 0" fill="#F2BA49" p-id="7051"></path><path d="M962.74963 502.992593c-24.557037-95.762963-7.774815-156.634074-7.774815-156.634074l-18.10963 1.327407 1.327408-54.328889c-19.437037-5.214815-38.874074-5.214815-58.216297 0l2.56 54.328889-19.437037-1.327407c6.447407 28.444444 12.98963 60.871111-3.887407 157.961481 12.98963 6.447407 27.211852 10.334815 41.434074 11.662222l2.56-50.536296h9.102222l5.214815 50.536296c14.222222-1.327407 27.211852-5.214815 40.106667-10.334815 2.56 0 3.792593-1.327407 5.12-2.654814z m0 0" fill="#F2BA49" p-id="7052"></path></svg>