<?xml version="1.0" standalone="no"?><!DOCTYPE svg PUBLIC "-//W3C//DTD SVG 1.1//EN" "http://www.w3.org/Graphics/SVG/1.1/DTD/svg11.dtd"><svg t="1782127466596" class="icon" viewBox="0 0 1024 1024" version="1.1" xmlns="http://www.w3.org/2000/svg" p-id="6394" xmlns:xlink="http://www.w3.org/1999/xlink" width="200" height="200"><path d="M511.404 65.717c-246.892 0-447.741 200.849-447.741 447.741s200.849 447.741 447.741 447.741S959.146 760.35 959.146 513.458 758.296 65.717 511.404 65.717z m0 820.859c-205.737 0-373.118-167.381-373.118-373.118S305.667 140.34 511.404 140.34s373.118 167.381 373.118 373.118-167.381 373.118-373.118 373.118z" p-id="6395" fill="#ffffff"></path><path d="M684.829 623.192L530.06 533.681V289.588c0-20.596-16.716-37.312-37.312-37.312-20.596 0-37.312 16.716-37.312 37.312V550.77c0 13.843 17.201 25.447 28.394 31.864 3.097 4.664 11.604 8.88 16.79 11.865l153.911 93.279c17.835 10.298 37.163 4.179 47.461-13.656 10.299-17.834 0.71-40.632-17.163-50.93z" p-id="6396" fill="#ffffff"></path></svg>